<svg version="1.1" id="Layer_1" xmlns="http://www.w3.org/2000/svg" xmlns:xlink="http://www.w3.org/1999/xlink" x="0px" y="0px"
	 width="100%" viewBox="0 0 600 600" enable-background="new 0 0 600 600" xml:space="preserve">
<path fill="#000000" opacity="1.000000" stroke="none" 
	d="
M277.000000,601.000000 
	C185.016708,601.000000 93.033432,601.000000 1.025071,601.000000 
	C1.025071,401.053040 1.025071,201.106094 1.025071,1.079574 
	C200.910599,1.079574 400.821228,1.079574 600.865967,1.079574 
	C600.865967,200.999954 600.865967,400.999969 600.871582,601.000000 
	C509.227417,601.000000 417.577606,601.000000 325.312927,600.585144 
	C325.876556,599.780823 327.028076,599.207153 328.237610,599.030457 
	C340.711975,597.207825 353.366089,596.222168 365.642395,593.516541 
	C393.525330,587.371155 420.038300,577.407288 445.123199,563.531738 
	C468.408539,550.651550 489.471924,534.870422 508.701447,516.632080 
	C515.755981,509.941162 521.922791,502.308594 528.432922,495.050293 
	C543.958984,477.739899 556.363403,458.267853 566.971558,437.702332 
	C579.000610,414.382080 588.089539,389.852600 592.844360,364.007416 
	C595.686401,348.558746 597.842407,332.877747 598.752197,317.210876 
	C599.586609,302.843414 599.039490,288.294098 597.801819,273.936890 
	C596.596069,259.950623 594.603516,245.906326 591.426514,232.243210 
	C585.606384,207.212341 576.497314,183.333679 564.352295,160.542221 
	C550.724854,134.968750 533.535339,112.107285 513.589600,91.306549 
	C505.855164,83.240524 496.926056,76.310280 488.452911,68.964470 
	C472.644989,55.259842 454.875427,44.474209 436.410156,34.861355 
	C417.664948,25.102791 398.026917,17.186462 377.466370,12.477290 
	C359.173553,8.287520 340.522888,4.964522 321.849304,3.347783 
	C306.226593,1.995187 290.304321,3.100384 274.586090,4.168342 
	C261.868134,5.032450 249.048798,6.551219 236.640213,9.382613 
	C209.495407,15.576525 183.484055,25.023102 158.904724,38.438042 
	C134.071793,51.991405 111.492867,68.556122 91.465904,88.353271 
	C80.732620,98.963394 71.187408,110.874237 61.865036,122.791809 
	C43.562340,146.189651 30.256638,172.415558 20.045547,200.236603 
	C10.573453,226.044205 4.629019,252.788452 3.343087,280.127136 
	C2.365093,300.919159 3.276554,321.963165 5.375650,342.689636 
	C7.360540,362.288391 12.481020,381.486298 19.049202,400.194611 
	C26.391449,421.107666 35.710300,441.123932 47.539017,459.797668 
	C64.351135,486.338593 84.391891,510.180328 108.716553,530.369141 
	C126.324821,544.983582 145.200241,557.523254 165.428284,568.106689 
	C183.014267,577.307739 201.492401,584.398804 220.567871,589.644958 
	C238.075974,594.460144 255.867477,598.285461 274.145996,599.083557 
	C275.123352,599.126160 276.049835,600.334412 277.000000,601.000000 
z"/>
<path fill="#05BF85" opacity="1.000000" stroke="none" 
	d="
M277.468658,601.000000 
	C276.049835,600.334412 275.123352,599.126160 274.145996,599.083557 
	C255.867477,598.285461 238.075974,594.460144 220.567871,589.644958 
	C201.492401,584.398804 183.014267,577.307739 165.428284,568.106689 
	C145.200241,557.523254 126.324821,544.983582 108.716553,530.369141 
	C84.391891,510.180328 64.351135,486.338593 47.539017,459.797668 
	C35.710300,441.123932 26.391449,421.107666 19.049202,400.194611 
	C12.481020,381.486298 7.360540,362.288391 5.375650,342.689636 
	C3.276554,321.963165 2.365093,300.919159 3.343087,280.127136 
	C4.629019,252.788452 10.573453,226.044205 20.045547,200.236603 
	C30.256638,172.415558 43.562340,146.189651 61.865036,122.791809 
	C71.187408,110.874237 80.732620,98.963394 91.465904,88.353271 
	C111.492867,68.556122 134.071793,51.991405 158.904724,38.438042 
	C183.484055,25.023102 209.495407,15.576525 236.640213,9.382613 
	C249.048798,6.551219 261.868134,5.032450 274.586090,4.168342 
	C290.304321,3.100384 306.226593,1.995187 321.849304,3.347783 
	C340.522888,4.964522 359.173553,8.287520 377.466370,12.477290 
	C398.026917,17.186462 417.664948,25.102791 436.410156,34.861355 
	C454.875427,44.474209 472.644989,55.259842 488.452911,68.964470 
	C496.926056,76.310280 505.855164,83.240524 513.589600,91.306549 
	C533.535339,112.107285 550.724854,134.968750 564.352295,160.542221 
	C576.497314,183.333679 585.606384,207.212341 591.426514,232.243210 
	C594.603516,245.906326 596.596069,259.950623 597.801819,273.936890 
	C599.039490,288.294098 599.586609,302.843414 598.752197,317.210876 
	C597.842407,332.877747 595.686401,348.558746 592.844360,364.007416 
	C588.089539,389.852600 579.000610,414.382080 566.971558,437.702332 
	C556.363403,458.267853 543.958984,477.739899 528.432922,495.050293 
	C521.922791,502.308594 515.755981,509.941162 508.701447,516.632080 
	C489.471924,534.870422 468.408539,550.651550 445.123199,563.531738 
	C420.038300,577.407288 393.525330,587.371155 365.642395,593.516541 
	C353.366089,596.222168 340.711975,597.207825 328.237610,599.030457 
	C327.028076,599.207153 325.876556,599.780823 324.849060,600.585144 
	C309.312439,601.000000 293.624878,601.000000 277.468658,601.000000 
M232.014328,560.512451 
	C232.813568,560.680115 233.620590,560.817383 234.410950,561.019714 
	C259.521210,567.447266 284.953430,570.899414 310.917145,568.967163 
	C321.572021,568.174194 332.345123,567.789734 342.804382,565.830750 
	C357.685303,563.043457 372.748322,560.167419 386.957367,555.136963 
	C402.755066,549.544067 417.906677,541.937744 432.925659,534.384949 
	C449.092957,526.254578 463.652069,515.437500 476.972992,503.285339 
	C489.940674,491.455414 502.154541,478.850037 512.941772,464.808044 
	C529.452576,443.315399 542.456909,419.984161 551.865906,394.695648 
	C558.074097,378.009796 563.216003,360.918671 565.041626,343.076508 
	C566.514404,328.682373 568.177185,314.279358 568.812561,299.838776 
	C569.179016,291.509766 567.613586,283.102600 567.023010,274.723175 
	C565.774292,257.004761 562.048889,239.733231 556.815613,222.849640 
	C551.143799,204.551132 543.677795,186.977951 534.153687,170.243774 
	C523.957764,152.329163 512.142395,135.653748 498.039398,120.684601 
	C490.308289,112.478737 482.390076,104.256386 473.539368,97.343361 
	C460.279724,86.986633 446.576904,77.038612 432.243103,68.253868 
	C411.928192,55.803490 389.762848,47.184551 366.508179,41.935341 
	C353.142883,38.918434 339.513550,36.952003 325.923889,35.090672 
	C316.960602,33.863003 307.858368,33.184082 298.814850,33.148296 
	C290.943146,33.117146 283.073425,34.431541 275.190704,34.976208 
	C257.802582,36.177662 240.910812,39.822128 224.273773,44.887032 
	C205.431458,50.623283 187.418274,58.161526 170.212875,67.848763 
	C153.413773,77.307251 137.688522,88.266365 123.531364,101.199234 
	C104.977417,118.148659 88.427666,136.891159 74.959930,158.354080 
	C59.422737,183.115005 47.920773,209.510620 41.119938,237.835541 
	C35.397076,261.670807 32.000004,285.890839 34.041817,310.526489 
	C35.126915,323.618774 36.129959,336.753906 38.097187,349.729156 
	C41.695793,373.464386 49.537205,395.954773 59.906033,417.561798 
	C70.027428,438.653259 82.747337,458.019318 98.105850,475.718933 
	C111.613831,491.285919 126.373779,505.399536 143.011139,517.596680 
	C159.325439,529.556946 176.523773,540.001404 195.287979,547.546570 
	C207.066208,552.282715 219.272690,555.953674 232.014328,560.512451 
z"/>
<path fill="#000000" opacity="1.000000" stroke="none" 
	d="
M231.650696,560.307495 
	C219.272690,555.953674 207.066208,552.282715 195.287979,547.546570 
	C176.523773,540.001404 159.325439,529.556946 143.011139,517.596680 
	C126.373779,505.399536 111.613831,491.285919 98.105850,475.718933 
	C82.747337,458.019318 70.027428,438.653259 59.906033,417.561798 
	C49.537205,395.954773 41.695793,373.464386 38.097187,349.729156 
	C36.129959,336.753906 35.126915,323.618774 34.041817,310.526489 
	C32.000004,285.890839 35.397076,261.670807 41.119938,237.835541 
	C47.920773,209.510620 59.422737,183.115005 74.959930,158.354080 
	C88.427666,136.891159 104.977417,118.148659 123.531364,101.199234 
	C137.688522,88.266365 153.413773,77.307251 170.212875,67.848763 
	C187.418274,58.161526 205.431458,50.623283 224.273773,44.887032 
	C240.910812,39.822128 257.802582,36.177662 275.190704,34.976208 
	C283.073425,34.431541 290.943146,33.117146 298.814850,33.148296 
	C307.858368,33.184082 316.960602,33.863003 325.923889,35.090672 
	C339.513550,36.952003 353.142883,38.918434 366.508179,41.935341 
	C389.762848,47.184551 411.928192,55.803490 432.243103,68.253868 
	C446.576904,77.038612 460.279724,86.986633 473.539368,97.343361 
	C482.390076,104.256386 490.308289,112.478737 498.039398,120.684601 
	C512.142395,135.653748 523.957764,152.329163 534.153687,170.243774 
	C543.677795,186.977951 551.143799,204.551132 556.815613,222.849640 
	C562.048889,239.733231 565.774292,257.004761 567.023010,274.723175 
	C567.613586,283.102600 569.179016,291.509766 568.812561,299.838776 
	C568.177185,314.279358 566.514404,328.682373 565.041626,343.076508 
	C563.216003,360.918671 558.074097,378.009796 551.865906,394.695648 
	C542.456909,419.984161 529.452576,443.315399 512.941772,464.808044 
	C502.154541,478.850037 489.940674,491.455414 476.972992,503.285339 
	C463.652069,515.437500 449.092957,526.254578 432.925659,534.384949 
	C417.906677,541.937744 402.755066,549.544067 386.957367,555.136963 
	C372.748322,560.167419 357.685303,563.043457 342.804382,565.830750 
	C332.345123,567.789734 321.572021,568.174194 310.917145,568.967163 
	C284.953430,570.899414 259.521210,567.447266 234.410950,561.019714 
	C233.620590,560.817383 232.813568,560.680115 231.650696,560.307495 
M307.006653,183.490402 
	C302.734192,189.491669 298.375092,195.433395 294.204590,201.504669 
	C277.633423,225.628418 261.127167,249.796768 244.574738,273.933411 
	C243.342789,275.729797 241.936020,277.406311 239.999115,279.937592 
	C239.999115,276.948486 239.999115,275.126099 239.999115,273.303711 
	C239.999344,217.313644 239.999802,161.323578 239.999557,105.333519 
	C239.999527,97.174042 238.081696,94.745964 230.413406,91.961662 
	C217.828796,87.392281 204.609970,89.539864 191.723892,88.255707 
	C184.986786,87.584312 177.952988,88.996178 171.149445,90.074585 
	C157.656158,92.213348 153.041214,94.804390 153.036301,106.550583 
	C152.981888,236.527466 152.999557,366.504395 153.008148,496.481323 
	C153.008682,504.504700 155.843185,508.795715 163.711960,510.892639 
	C169.673187,512.481262 175.890259,513.555664 182.044205,513.871948 
	C191.517502,514.358704 201.055740,514.389221 210.525238,513.866760 
	C217.173447,513.500000 223.874161,512.363892 230.331421,510.711548 
	C237.680405,508.830963 239.999023,505.060699 239.999222,497.468811 
	C240.000824,434.480011 239.999802,371.491180 239.999573,308.502380 
	C239.999557,306.729401 239.999557,304.956390 239.999557,302.278931 
	C241.311829,303.772034 242.163239,304.518555 242.745117,305.436005 
	C252.198044,320.340576 261.591766,335.282745 271.048523,350.184845 
	C291.366943,382.203003 311.719910,414.199188 332.046783,446.211975 
	C343.176514,463.740173 354.116821,481.392303 365.516510,498.742889 
	C368.298157,502.976624 371.951416,507.390320 376.283936,509.655487 
	C381.316956,512.286926 387.543060,513.797791 393.243835,513.776672 
	C411.609100,513.708679 430.099854,515.783813 448.323761,511.946655 
	C461.030121,509.271179 464.588654,503.706512 460.408356,492.137543 
	C457.872467,485.119507 454.414581,478.253296 450.317596,472.010132 
	C423.581879,431.269592 396.572449,390.708496 369.622314,350.108795 
	C355.694672,329.127197 341.658325,308.217316 327.857361,287.153015 
	C327.016907,285.870270 327.099670,283.008881 327.983337,281.736694 
	C332.090302,275.824097 336.627350,270.209991 341.017120,264.494141 
	C359.881256,239.931244 378.777863,215.393219 397.602234,190.799850 
	C409.150024,175.712997 420.884430,160.755249 431.972992,145.335327 
	C439.498138,134.870804 447.067261,124.209923 452.761322,112.717567 
	C459.078888,99.966805 454.268524,93.805801 442.600403,91.199898 
	C435.603271,89.637199 428.185974,90.061623 421.070435,88.900841 
	C407.810547,86.737694 394.711578,88.544594 381.661530,90.172653 
	C373.727570,91.162445 367.100281,94.847656 362.695160,102.411255 
	C358.014191,110.448441 352.239838,117.848007 346.956512,125.535370 
	C333.803345,144.673752 320.657867,163.817429 307.006653,183.490402 
z"/>
<path fill="#05BF85" opacity="1.000000" stroke="none" 
	d="
M307.257996,183.224701 
	C320.657867,163.817429 333.803345,144.673752 346.956512,125.535370 
	C352.239838,117.848007 358.014191,110.448441 362.695160,102.411255 
	C367.100281,94.847656 373.727570,91.162445 381.661530,90.172653 
	C394.711578,88.544594 407.810547,86.737694 421.070435,88.900841 
	C428.185974,90.061623 435.603271,89.637199 442.600403,91.199898 
	C454.268524,93.805801 459.078888,99.966805 452.761322,112.717567 
	C447.067261,124.209923 439.498138,134.870804 431.972992,145.335327 
	C420.884430,160.755249 409.150024,175.712997 397.602234,190.799850 
	C378.777863,215.393219 359.881256,239.931244 341.017120,264.494141 
	C336.627350,270.209991 332.090302,275.824097 327.983337,281.736694 
	C327.099670,283.008881 327.016907,285.870270 327.857361,287.153015 
	C341.658325,308.217316 355.694672,329.127197 369.622314,350.108795 
	C396.572449,390.708496 423.581879,431.269592 450.317596,472.010132 
	C454.414581,478.253296 457.872467,485.119507 460.408356,492.137543 
	C464.588654,503.706512 461.030121,509.271179 448.323761,511.946655 
	C430.099854,515.783813 411.609100,513.708679 393.243835,513.776672 
	C387.543060,513.797791 381.316956,512.286926 376.283936,509.655487 
	C371.951416,507.390320 368.298157,502.976624 365.516510,498.742889 
	C354.116821,481.392303 343.176514,463.740173 332.046783,446.211975 
	C311.719910,414.199188 291.366943,382.203003 271.048523,350.184845 
	C261.591766,335.282745 252.198044,320.340576 242.745117,305.436005 
	C242.163239,304.518555 241.311829,303.772034 239.999557,302.278931 
	C239.999557,304.956390 239.999557,306.729401 239.999573,308.502380 
	C239.999802,371.491180 240.000824,434.480011 239.999222,497.468811 
	C239.999023,505.060699 237.680405,508.830963 230.331421,510.711548 
	C223.874161,512.363892 217.173447,513.500000 210.525238,513.866760 
	C201.055740,514.389221 191.517502,514.358704 182.044205,513.871948 
	C175.890259,513.555664 169.673187,512.481262 163.711960,510.892639 
	C155.843185,508.795715 153.008682,504.504700 153.008148,496.481323 
	C152.999557,366.504395 152.981888,236.527466 153.036301,106.550583 
	C153.041214,94.804390 157.656158,92.213348 171.149445,90.074585 
	C177.952988,88.996178 184.986786,87.584312 191.723892,88.255707 
	C204.609970,89.539864 217.828796,87.392281 230.413406,91.961662 
	C238.081696,94.745964 239.999527,97.174042 239.999557,105.333519 
	C239.999802,161.323578 239.999344,217.313644 239.999115,273.303711 
	C239.999115,275.126099 239.999115,276.948486 239.999115,279.937592 
	C241.936020,277.406311 243.342789,275.729797 244.574738,273.933411 
	C261.127167,249.796768 277.633423,225.628418 294.204590,201.504669 
	C298.375092,195.433395 302.734192,189.491669 307.257996,183.224701 
z"/>
</svg>